<?xml version="1.0" standalone="no"?><!DOCTYPE svg PUBLIC "-//W3C//DTD SVG 1.1//EN" "http://www.w3.org/Graphics/SVG/1.1/DTD/svg11.dtd"><svg class="icon" width="200px" height="200.00px" viewBox="0 0 1024 1024" version="1.1" xmlns="http://www.w3.org/2000/svg"><path fill="#707070" d="M146.286 768q0-14.857-10.857-25.714t-25.715-10.857T84 742.286 73.143 768 84 793.714t25.714 10.857 25.715-10.857T146.286 768z m804.571-329.143q0-29.143-22.286-51.143t-50.857-22H548.571q0-11.428 8.572-27.714T576 306.571t18.857-38.857 8.572-48.285q0-38.286-25.429-55.715t-66-17.428q-13.714 0-51.429 79.428-13.714 25.143-21.142 37.143-22.858 36.572-64 82.857-40.572 46.286-57.715 60.572-39.428 32.571-80 32.571H219.43v365.714h18.285q41.143 0 95.429 18.286t110.571 36.572 102.572 18.285q108 0 108-95.428 0-14.857-2.857-32 17.142-9.143 27.142-30t10-42-10.285-39.429q30.285-28.571 30.285-68 0-14.286-5.714-31.714T688.571 512h189.143q29.715 0 51.429-21.714t21.714-51.429z m73.143-0.571q0 60-43.143 103.428t-103.143 43.429h-96.571q-2.286 35.428-21.143 68 1.714 12 1.714 24.571 0 57.715-34.285 101.715 0.571 79.428-48.572 125.428t-129.714 46q-76 0-184-39.428-93.714-33.715-127.429-33.715H73.143q-30.286 0-51.714-21.428T0 804.57V438.857q0-30.286 21.429-51.714t51.714-21.429h164.571q5.715 0 12.286-2.571t13.429-8 12.857-10.286T290 332t11.714-12.286 10.857-12.285 8-9.715Q357.714 255.43 377.714 224q7.429-12 18.857-35.429t21.143-41.142 23.143-36 31.429-28.286 39.714-10q71.429 0 118 38.286t46.571 108q0 38.857-12.571 73.142h213.714q59.429 0 102.857 43.429T1024 438.286z" /></svg>