{"accessors":{"accessor_0":{"bufferView":"bufferView_0","byteOffset":0,"byteStride":0,"componentType":5126,"count":1045,"min":[-1.25,-2.5,-12.010100364685059],"max":[1.25,0.3093000054359436,12.010100364685059],"type":"VEC3"},"accessor_1":{"bufferView":"bufferView_0","byteOffset":12540,"byteStride":0,"componentType":5126,"count":1045,"min":[-1,-1,-1],"max":[1,1,1],"type":"VEC3"},"accessor_2":{"bufferView":"bufferView_0","byteOffset":25080,"byteStride":0,"componentType":5126,"count":1045,"min":[0,0.025299999862909317],"max":[1,1],"type":"VEC2"},"accessor_3":{"bufferView":"bufferView_1","byteOffset":0,"byteStride":0,"componentType":5123,"count":2484,"min":[0],"max":[1044],"type":"SCALAR"}},"asset":{"generator":"obj2gltf","profile":{"api":"WebGL","version":"1.0"},"version":"1.0","premultipliedAlpha":true},"buffers":{"buffer":{"byteLength":38408,"uri":"buffer.bin","type":"arraybuffer"}},"bufferViews":{"bufferView_0":{"buffer":"buffer","byteLength":33440,"byteOffset":0,"target":34962},"bufferView_1":{"buffer":"buffer","byteLength":4968,"byteOffset":33440,"target":34963}},"extensionsUsed":[],"images":{"shuini_jianzhu_zch001A":{"name":"shuini_jianzhu_zch001A","uri":"shuini_jianzhu_zch001A.jpg"}},"materials":{"T_liang_low_m":{"technique":"technique0","values":{"ambient":"texture_shuini_jianzhu_zch001A","diffuse":"texture_shuini_jianzhu_zch001A","emission":[0,0,0,1],"specular":[0,0,0,1],"shininess":10,"transparency":1}}},"meshes":{"T_liang_low001_1":{"name":"T_liang_low001_1","primitives":[{"attributes":{"POSITION":"accessor_0","NORMAL":"accessor_1","TEXCOORD_0":"accessor_2"},"indices":"accessor_3","material":"T_liang_low_m","mode":4}]}},"nodes":{"T_liang_low001":{"name":"T_liang_low001","meshes":["T_liang_low001_1"],"children":[],"matrix":[1,0,0,0,0,1,0,0,0,0,1,0,0,0,0,1]}},"samplers":{"sampler":{"magFilter":9729,"minFilter":9986,"wrapS":10497,"wrapT":10497}},"scene":"scene","scenes":{"scene":{"nodes":["T_liang_low001"]}},"textures":{"texture_shuini_jianzhu_zch001A":{"format":6407,"internalFormat":6407,"sampler":"sampler","source":"shuini_jianzhu_zch001A","target":3553,"type":5121}},"animations":{},"cameras":{},"programs":{"program0":{"attributes":["a_position","a_normal","a_texcoord_0"],"fragmentShader":"fragmentShader0","vertexShader":"vertexShader0"}},"shaders":{"vertexShader0":{"type":35633,"uri":"vertexShader0.glsl"},"fragmentShader0":{"type":35632,"uri":"fragmentShader0.glsl"}},"skins":{},"techniques":{"technique0":{"attributes":{"a_position":"position","a_normal":"normal","a_texcoord_0":"texcoord_0"},"parameters":{"modelViewMatrix":{"semantic":"MODELVIEW","type":35676},"projectionMatrix":{"semantic":"PROJECTION","type":35676},"normalMatrix":{"semantic":"MODELVIEWINVERSETRANSPOSE","type":35675},"ambient":{"type":35678},"diffuse":{"type":35678},"emission":{"type":35666},"specular":{"type":35666},"shininess":{"type":5126},"transparency":{"type":5126},"position":{"semantic":"POSITION","type":35665},"normal":{"semantic":"NORMAL","type":35665},"texcoord_0":{"semantic":"TEXCOORD_0","type":35664}},"program":"program0","states":{"enable":[2884,2929]},"uniforms":{"u_modelViewMatrix":"modelViewMatrix","u_projectionMatrix":"projectionMatrix","u_normalMatrix":"normalMatrix","u_ambient":"ambient","u_diffuse":"diffuse","u_emission":"emission","u_specular":"specular","u_shininess":"shininess","u_transparency":"transparency"}}}}
