{"accessors":{"accessor_0":{"bufferView":"bufferView_0","byteOffset":0,"byteStride":0,"componentType":5126,"count":66,"min":[-0.5,-10,-0.5],"max":[0.5,0,0.5],"type":"VEC3"},"accessor_1":{"bufferView":"bufferView_0","byteOffset":792,"byteStride":0,"componentType":5126,"count":66,"min":[-1,-1,-1],"max":[1,1,1],"type":"VEC3"},"accessor_2":{"bufferView":"bufferView_0","byteOffset":1584,"byteStride":0,"componentType":5126,"count":66,"min":[0,-0.003599999938160181],"max":[0.8335999846458435,2.8397998809814453],"type":"VEC2"},"accessor_3":{"bufferView":"bufferView_1","byteOffset":0,"byteStride":0,"componentType":5123,"count":180,"min":[0],"max":[65],"type":"SCALAR"}},"asset":{"generator":"obj2gltf","profile":{"api":"WebGL","version":"1.0"},"version":"1.0","premultipliedAlpha":true},"buffers":{"buffer":{"byteLength":2472,"uri":"buffer.bin","type":"arraybuffer"}},"bufferViews":{"bufferView_0":{"buffer":"buffer","byteLength":2112,"byteOffset":0,"target":34962},"bufferView_1":{"buffer":"buffer","byteLength":360,"byteOffset":2112,"target":34963}},"extensionsUsed":[],"images":{"shuini_jianzhu_zch001":{"name":"shuini_jianzhu_zch001","uri":"shuini_jianzhu_zch001.jpg"}},"materials":{"dun_zhu_xia_m":{"technique":"technique0","values":{"ambient":"texture_shuini_jianzhu_zch001","diffuse":"texture_shuini_jianzhu_zch001","emission":[0,0,0,1],"specular":[0,0,0,1],"shininess":10,"transparency":1}}},"meshes":{"zhuang_zhu01_1":{"name":"zhuang_zhu01_1","primitives":[{"attributes":{"POSITION":"accessor_0","NORMAL":"accessor_1","TEXCOORD_0":"accessor_2"},"indices":"accessor_3","material":"dun_zhu_xia_m","mode":4}]}},"nodes":{"zhuang_zhu01":{"name":"zhuang_zhu01","meshes":["zhuang_zhu01_1"],"children":[],"matrix":[1,0,0,0,0,1,0,0,0,0,1,0,0,0,0,1]}},"samplers":{"sampler":{"magFilter":9729,"minFilter":9986,"wrapS":10497,"wrapT":10497}},"scene":"scene","scenes":{"scene":{"nodes":["zhuang_zhu01"]}},"textures":{"texture_shuini_jianzhu_zch001":{"format":6407,"internalFormat":6407,"sampler":"sampler","source":"shuini_jianzhu_zch001","target":3553,"type":5121}},"animations":{},"cameras":{},"programs":{"program0":{"attributes":["a_position","a_normal","a_texcoord_0"],"fragmentShader":"fragmentShader0","vertexShader":"vertexShader0"}},"shaders":{"vertexShader0":{"type":35633,"uri":"vertexShader0.glsl"},"fragmentShader0":{"type":35632,"uri":"fragmentShader0.glsl"}},"skins":{},"techniques":{"technique0":{"attributes":{"a_position":"position","a_normal":"normal","a_texcoord_0":"texcoord_0"},"parameters":{"modelViewMatrix":{"semantic":"MODELVIEW","type":35676},"projectionMatrix":{"semantic":"PROJECTION","type":35676},"normalMatrix":{"semantic":"MODELVIEWINVERSETRANSPOSE","type":35675},"ambient":{"type":35678},"diffuse":{"type":35678},"emission":{"type":35666},"specular":{"type":35666},"shininess":{"type":5126},"transparency":{"type":5126},"position":{"semantic":"POSITION","type":35665},"normal":{"semantic":"NORMAL","type":35665},"texcoord_0":{"semantic":"TEXCOORD_0","type":35664}},"program":"program0","states":{"enable":[2884,2929]},"uniforms":{"u_modelViewMatrix":"modelViewMatrix","u_projectionMatrix":"projectionMatrix","u_normalMatrix":"normalMatrix","u_ambient":"ambient","u_diffuse":"diffuse","u_emission":"emission","u_specular":"specular","u_shininess":"shininess","u_transparency":"transparency"}}}}
