{"accessors":{"accessor_0":{"bufferView":"bufferView_0","byteOffset":0,"byteStride":0,"componentType":5126,"count":236,"min":[-2.024899959564209,-1,-0.9909999966621399],"max":[2.0246999263763428,0,0.9919999837875366],"type":"VEC3"},"accessor_1":{"bufferView":"bufferView_0","byteOffset":2832,"byteStride":0,"componentType":5126,"count":236,"min":[-0.9988999962806702,-1,-0.9988999962806702],"max":[0.9988999962806702,1,0.9988999962806702],"type":"VEC3"},"accessor_2":{"bufferView":"bufferView_0","byteOffset":5664,"byteStride":0,"componentType":5126,"count":236,"min":[0.0052999998442828655,0.010400000028312206],"max":[0.989799976348877,0.994700014591217],"type":"VEC2"},"accessor_3":{"bufferView":"bufferView_1","byteOffset":0,"byteStride":0,"componentType":5123,"count":660,"min":[0],"max":[235],"type":"SCALAR"}},"asset":{"generator":"obj2gltf","profile":{"api":"WebGL","version":"1.0"},"version":"1.0","premultipliedAlpha":true},"buffers":{"buffer":{"byteLength":8872,"uri":"buffer.bin","type":"arraybuffer"}},"bufferViews":{"bufferView_0":{"buffer":"buffer","byteLength":7552,"byteOffset":0,"target":34962},"bufferView_1":{"buffer":"buffer","byteLength":1320,"byteOffset":7552,"target":34963}},"extensionsUsed":[],"images":{"shuini_jianzhu_zch001":{"name":"shuini_jianzhu_zch001","uri":"shuini_jianzhu_zch001.jpg"}},"materials":{"dun_zhu_xia_m":{"technique":"technique0","values":{"ambient":"texture_shuini_jianzhu_zch001","diffuse":"texture_shuini_jianzhu_zch001","emission":[0,0,0,1],"specular":[0,0,0,1],"shininess":10,"transparency":1}}},"meshes":{"chengtai_1":{"name":"chengtai_1","primitives":[{"attributes":{"POSITION":"accessor_0","NORMAL":"accessor_1","TEXCOORD_0":"accessor_2"},"indices":"accessor_3","material":"dun_zhu_xia_m","mode":4}]}},"nodes":{"chengtai":{"name":"chengtai","meshes":["chengtai_1"],"children":[],"matrix":[1,0,0,0,0,1,0,0,0,0,1,0,0,0,0,1]}},"samplers":{"sampler":{"magFilter":9729,"minFilter":9986,"wrapS":10497,"wrapT":10497}},"scene":"scene","scenes":{"scene":{"nodes":["chengtai"]}},"textures":{"texture_shuini_jianzhu_zch001":{"format":6407,"internalFormat":6407,"sampler":"sampler","source":"shuini_jianzhu_zch001","target":3553,"type":5121}},"animations":{},"cameras":{},"programs":{"program0":{"attributes":["a_position","a_normal","a_texcoord_0"],"fragmentShader":"fragmentShader0","vertexShader":"vertexShader0"}},"shaders":{"vertexShader0":{"type":35633,"uri":"vertexShader0.glsl"},"fragmentShader0":{"type":35632,"uri":"fragmentShader0.glsl"}},"skins":{},"techniques":{"technique0":{"attributes":{"a_position":"position","a_normal":"normal","a_texcoord_0":"texcoord_0"},"parameters":{"modelViewMatrix":{"semantic":"MODELVIEW","type":35676},"projectionMatrix":{"semantic":"PROJECTION","type":35676},"normalMatrix":{"semantic":"MODELVIEWINVERSETRANSPOSE","type":35675},"ambient":{"type":35678},"diffuse":{"type":35678},"emission":{"type":35666},"specular":{"type":35666},"shininess":{"type":5126},"transparency":{"type":5126},"position":{"semantic":"POSITION","type":35665},"normal":{"semantic":"NORMAL","type":35665},"texcoord_0":{"semantic":"TEXCOORD_0","type":35664}},"program":"program0","states":{"enable":[2884,2929]},"uniforms":{"u_modelViewMatrix":"modelViewMatrix","u_projectionMatrix":"projectionMatrix","u_normalMatrix":"normalMatrix","u_ambient":"ambient","u_diffuse":"diffuse","u_emission":"emission","u_specular":"specular","u_shininess":"shininess","u_transparency":"transparency"}}}}
