<?xml version="1.0" standalone="no"?><!DOCTYPE svg PUBLIC "-//W3C//DTD SVG 1.1//EN" "http://www.w3.org/Graphics/SVG/1.1/DTD/svg11.dtd"><svg class="icon" width="200px" height="200.00px" viewBox="0 0 1024 1024" version="1.1" xmlns="http://www.w3.org/2000/svg"><path fill="#d81e06" d="M476.66 103.35c-8.545 27.357-18.025 9.453-38.481 5.998v40.314h111.595V95.237h-72.488c0.37 4.678 0.259 7.789-0.626 8.113z"  /><path fill="#d81e06" d="M476.66 103.35c0.885-0.325 0.995-3.435 0.626-8.114-1.352-17.111-9.145-55.248-9.145-55.248 0-5.772-4.816 0.414-10.721 0.414 0 0-131.664 2.883-224.714-3.298-12.507-0.688-12.231 0-18.693 6.455-6.186 8.112-6.593 33.54-1.786 38.348 1.926 2.06 4.676 3.297 7.831 3.297 0 0 29.414-11.269 177.023-10.307 3.986 0 8.661 5.914 1.103 10.721-25.841 16.219-104.866 44.943-133.042 56.626-6.319 2.609-10.993 7.966-12.231 13.055-1.378 6.047-2.334 16.219-2.474 24.05 0 6.461 7.698 11.409 13.609 7.971 34.081-18.967 86.174-53.329 154.892-76.414 7.354-2.374 13.698-2.495 19.241-1.559 20.456 3.456 29.937 21.361 38.481-5.997z"  /><path fill="#d81e06" d="M258.549 181.41c6.593-3.712 13.877-7.831 21.709-12.505 32.85-19.242 77.926-45.492 133.59-64.045 4.534-1.377 8.935-2.2 13.336-2.2 7.972 0 14.707 2.476 20.204 4.95l2.748 1.238c3.986 1.784 7.283 3.296 10.166 3.296 3.022 0 6.6-1.652 10.446-13.884l0.274-0.683 0.416-0.14c1.236-3.845-3.024-30.65-8.114-56.626 0.556-0.274 1.238-0.548 1.652-0.822 0.824-0.414 1.926-0.824 1.786-1.097 0 0 0.14 0.274 0.14 1.371 5.631 27.488 10.581 57.59 9.209 61.709l-0.414 0.14-0.274 0.688c-3.852 12.233-7.424 13.878-10.447 13.878-2.748 0-6.186-1.512-10.172-3.297l-2.75-1.238c-5.498-2.474-12.091-4.948-20.203-4.948-4.261 0-8.795 0.688-13.33 2.2-55.662 18.552-100.74 44.943-133.59 64.043-7.831 4.541-15.114 8.802-21.716 12.507-0.962 0.555-2.2 0.829-3.296 0.829a8.043 8.043 0 0 1-5.638-2.34c-0.824-0.824-1.371-1.786-1.786-2.75 0.829 0.282 1.786 0.556 2.614 0.556 1.24 0.001 2.336-0.273 3.44-0.83z m0 0"  /><path fill="#d81e06" d="M474.186 106.922c0 5.496 4.534 10.031 10.172 10.031h92.909c5.631 0 10.166-4.395 10.166-10.031V61.155c0-5.498-4.535-10.031-10.166-10.031h-92.909c-5.638 0-10.172 4.533-10.172 10.031v45.767z m0 0"  /><path fill="#d81e06" d="M483.396 80.53c0 5.778 4.809 10.447 10.581 10.447s10.579-4.669 10.579-10.447c0-5.772-4.667-10.305-10.579-10.305-5.912 0-10.581 4.674-10.581 10.305z m0 0"  /><path fill="#d81e06" d="M485.041 80.53c2.067 0 3.986 1.926 3.986 3.987 0 2.067-1.919 3.852-3.986 3.852V80.53z m0 0"  /><path fill="#d81e06" d="M486.967 80.53c0 3.852 3.164 6.876 7.009 6.876 3.852 0 7.008-3.023 7.008-6.876 0-3.845-3.155-6.867-7.008-6.867-3.845-0.001-7.009 3.162-7.009 6.867z m0 0"  /><path fill="#d81e06" d="M435.43 78.337c0 32.021 26.25 57.857 58.687 57.857 32.436 0 58.686-25.836 58.686-57.857 0-31.888-26.25-57.864-58.686-57.864-32.437 0-58.687 25.835-58.687 57.864z m0 0M575.474 56.622h3.024c0.688 0 1.236 0.134 1.793 0.274-1.512-0.274 4.941-1.238 6.734 6.319 0.409 1.238 4.943 4.676 7.283 4.809 25.976 0.962 67.34 7.838 103.904 38.762 39.993 33.667 77.098 77.24 76.824 181.142 0-10.031-30.236-2.06-30.236-2.06-0.134-98.131-36.697-128.093-68.03-154.623-28.31-24.05-61.576-30.097-83.01-30.919-2.2-0.14-6.461 4.393-6.876 5.905-1.37 6.876-5.357 6.876-7.424 7.009h-0.274c-0.274 0-0.548 0.14-0.822 0.14h-3.024c-2.888 0-5.364-0.14-5.364-3.024V59.644c0.275-2.888 2.617-3.022 5.498-3.022z m0 0"  /><path fill="#d81e06" d="M706.865 344.548v-4.941c0-20.205 11.55-37.8 28.452-46.728 0-0.281-0.135-0.414-0.135-0.69v-10.993c0-2.89 2.335-5.224 5.357-5.224H780.4c2.881 0 5.357 2.334 5.357 5.224v10.993c0 0.135-0.135 0.409-0.135 0.55 17.176 8.793 28.859 26.524 28.859 47.002V485.15c0 2.888-2.334 5.222-5.357 5.222h-97.443c-2.89 0-5.364-2.334-5.364-5.222V346.616c0.14-0.69 0.274-1.378 0.548-2.068z m0 0M438.179 146.091h111.595v80.402H438.179z"  /><path fill="#d81e06" d="M301.425 371.902c0-82.054 67.621-148.571 150.905-148.571h89.885c83.426 0 150.906 66.517 150.906 148.571 0 1.097 0 2.334-0.134 3.438H301.425v-3.438z m0 0M301.292 379.459c0-1.097 0.134-2.334 0.134-3.438v-0.681h391.563v1.645c0 0.829 0.134 1.652 0.134 2.474v28.036h-391.83v-28.036z m0 0M301.292 407.495h391.83v490.658h-391.83zM693.122 898.153v66.659c0 28.998-6.179 39.305-23.502 39.305H324.925c-17.455 0-23.634-10.307-23.634-39.305v-66.659h391.831z m0 0"  /><path fill="#d81e06" d="M392.687 536.966h217.697v237.22H392.687zM472.808 78.337c2.066 0 3.988 1.919 3.988 3.986 0 2.06-1.921 3.845-3.988 3.845v-7.831z m0 0"  /></svg>