<?xml version="1.0" standalone="no"?><!DOCTYPE svg PUBLIC "-//W3C//DTD SVG 1.1//EN" "http://www.w3.org/Graphics/SVG/1.1/DTD/svg11.dtd"><svg class="icon" width="200px" height="200.00px" viewBox="0 0 1024 1024" version="1.1" xmlns="http://www.w3.org/2000/svg"><path d="M832 794.69568C832 879.90528 758.72512 947.2 673.49504 947.2H358.70464C273.48736 947.2 202.24 879.90528 202.24 794.69568v-3.12064C202.24 706.35008 273.48736 637.44 358.70464 637.44h314.7904C758.72512 637.44 832 706.35008 832 791.57504v3.12064z" fill="#E54405" /><path d="M512 461.17888m-385.51296 0a385.51296 385.51296 0 1 0 771.02592 0 385.51296 385.51296 0 1 0-771.02592 0Z" fill="#F2B60F" /><path d="M515.24864 457.92512m-323.82464 0a323.82464 323.82464 0 1 0 647.64928 0 323.82464 323.82464 0 1 0-647.64928 0Z" fill="#F74608" /><path d="M538.86976 249.83552l-24.34816-12.78208-24.33536 12.80256 4.63104-27.10016-19.70432-19.19488 27.21024-3.95776 12.16768-24.67328 12.18048 24.65536 27.2128 3.93472-19.68384 19.21024zM369.9072 286.3872l-19.3408-10.15296-19.32544 10.17344 3.67616-21.5296-15.65184-15.2576 21.61152-3.136 9.67168-19.60448 9.67168 19.58656 21.62176 3.13344-15.63648 15.25504zM707.57376 286.3872l-19.3408-10.15296-19.32544 10.17344 3.67616-21.5296-15.65184-15.2576 21.61408-3.136 9.664-19.60448 9.68704 19.58656 21.61408 3.13344-15.6416 15.25504zM603.67872 364.31104l-19.34848-10.15808-19.32544 10.17088 3.68384-21.53216-15.65696-15.24224 21.61408-3.13856 9.66144-19.60448 9.69472 19.584 21.61152 3.13344-15.63648 15.25504zM460.82048 364.31104l-19.34592-10.15808-19.32544 10.17088 3.68128-21.53216-15.65184-15.24224 21.61408-3.13856 9.664-19.60448 9.67936 19.584 21.6192 3.13344-15.63648 15.25504z" fill="#F7BC16" /><path d="M261.12 650.24h514.72384l-17.32352-66.56H286.72" fill="#EA9F07" /><path d="M351.57248 584.19712L381.84192 509.44h277.11744l29.25824 77.4144z" fill="#EFBB14" /></svg>