<?xml version="1.0" standalone="no"?><!DOCTYPE svg PUBLIC "-//W3C//DTD SVG 1.1//EN" "http://www.w3.org/Graphics/SVG/1.1/DTD/svg11.dtd"><svg class="icon" width="200px" height="200.00px" viewBox="0 0 1024 1024" version="1.1" xmlns="http://www.w3.org/2000/svg"><path d="M1014.29632 848.512l-86.464-86.848a34.112 34.112 0 0 0-40.256-5.952l-16.32-16.384c24.96-31.232 39.808-70.976 39.808-114.112a184.128 184.128 0 0 0-183.616-184.576 184.192 184.192 0 0 0-183.808 184.576 184.064 184.064 0 0 0 183.808 184.32c43.008 0 82.56-14.848 113.664-39.936l16.32 16.384a34.496 34.496 0 0 0 5.888 40.448l86.528 86.848a34.24 34.24 0 0 0 48.448 0l16.064-16.128a34.56 34.56 0 0 0-0.064-48.64" fill="#F77D39" /><path d="M811.28832 828.352c-1.344-1.344-2.112-3.008-3.2-4.48a214.4 214.4 0 0 1-272.768-293.824c-35.008-12.8-139.008-50.112-226.304-73.536-19.2-5.184-264.256-83.072-89.856-130.304 34.112-9.28 111.616-26.048 254.592-40.576 44.992-4.608 132.928-52.928 39.744-89.344-18.496-7.232-47.744-41.664 73.856-52.032 29.568-2.496 80.704-59.84-17.024-39.04-97.728 20.8-43.2 20.8-96.576 25.984-53.44 5.248-182.912 36.48-124.992 52.096s163.584 28.608 79.552 52.032c-20.352 5.632-167.552 16.832-266.944 40.768C84.76032 294.528-56.80768 380.16 24.98432 521.536c35.392 61.184 187.84 155.392 216.576 178.368 135.36 108.544 176.64 190.144 176 190.272h455.424l-61.696-61.824z" fill="#00B9B2" /><path d="M598.74432 625.28c0-71.488 57.6-129.28 128.768-129.28 70.976 0 128.768 57.792 128.768 129.28a128.832 128.832 0 0 1-257.536 0" fill="#FFFFFF" /></svg>