<?xml version="1.0" standalone="no"?><!DOCTYPE svg PUBLIC "-//W3C//DTD SVG 1.1//EN" "http://www.w3.org/Graphics/SVG/1.1/DTD/svg11.dtd"><svg class="icon" width="200px" height="200.00px" viewBox="0 0 1024 1024" version="1.1" xmlns="http://www.w3.org/2000/svg"><path d="M799.5 834.4H221.3l71.1-690.9H725z" fill="#dbdbdb" /><path d="M509.4 410.3c-5.5 0-10-4.5-10-10v-81.5c0-5.5 4.5-10 10-10s10 4.5 10 10v81.5c0 5.5-4.5 10-10 10zM509.4 666.4c-5.5 0-10-4.5-10-10v-81.5c0-5.5 4.5-10 10-10s10 4.5 10 10v81.5c0 5.5-4.5 10-10 10z" fill="#ffffff" /><path d="M221.3 844.4c-0.3 0-0.7 0-1-0.1-5.5-0.6-9.5-5.5-8.9-11l71.1-690.9c0.6-5.5 5.5-9.5 11-8.9 5.5 0.6 9.5 5.5 8.9 11l-71.1 690.9c-0.6 5.2-4.9 9-10 9zM804.6 844.4c-5.1 0-9.4-3.8-9.9-9l-71.1-690.9c-0.6-5.5 3.4-10.4 8.9-11 5.5-0.6 10.4 3.4 11 8.9l71.1 690.9c0.6 5.5-3.4 10.4-8.9 11-0.5 0.1-0.8 0.1-1.1 0.1zM509.4 342.9c-5.5 0-10-4.5-10-10V143.5c0-5.5 4.5-10 10-10s10 4.5 10 10v189.4c0 5.6-4.5 10-10 10zM509.4 593.7c-5.5 0-10-4.5-10-10V394.2c0-5.5 4.5-10 10-10s10 4.5 10 10v189.4c0 5.6-4.5 10.1-10 10.1zM509.4 844.4c-5.5 0-10-4.5-10-10V645c0-5.5 4.5-10 10-10s10 4.5 10 10v189.4c0 5.5-4.5 10-10 10z" fill="#2c2c2c" /></svg>