<?xml version="1.0" standalone="no"?><!DOCTYPE svg PUBLIC "-//W3C//DTD SVG 1.1//EN" "http://www.w3.org/Graphics/SVG/1.1/DTD/svg11.dtd"><svg class="icon" width="200px" height="200.00px" viewBox="0 0 1024 1024" version="1.1" xmlns="http://www.w3.org/2000/svg"><path fill="#d81e06" d="M764.04 460.27l4.271-69.975 44.107 23.673 11.528-21.135-271.214-144.942L380.1 320.114l9.483 22.127 7.296-3.016v53.424l-78.878-41.336L66.49 476.896l10.766 21.532 45.052-22.851v228.755h106.049V559.885h72.223v144.447h24.075V559.885h72.223v144.447h72.223v72.223h120.372V608.034h96.297v168.521h36.113V608.034h96.297v168.521h93.252V565l33.571 17.585 11.172-21.325L764.04 460.27zM565.4 343.215h60.186v72.223l-36.112 36.112-24.074-12.037v-96.298z m-96.298 0h72.224v84.261l-72.224-48.149v-36.112z"  /></svg>