{"accessors":{"accessor_0":{"bufferView":"bufferView_0","byteOffset":0,"byteStride":0,"componentType":5126,"count":150,"min":[-0.5,0,-0.49239999055862427],"max":[0.5,10,0.49239999055862427],"type":"VEC3"},"accessor_1":{"bufferView":"bufferView_0","byteOffset":1800,"byteStride":0,"componentType":5126,"count":150,"min":[-1,-1,-0.9847999811172485],"max":[1,1,0.9847999811172485],"type":"VEC3"},"accessor_2":{"bufferView":"bufferView_0","byteOffset":3600,"byteStride":0,"componentType":5126,"count":150,"min":[-0.028200000524520874,-3.2565999031066895],"max":[0.9994999766349792,4.2565999031066895],"type":"VEC2"},"accessor_3":{"bufferView":"bufferView_1","byteOffset":0,"byteStride":0,"componentType":5123,"count":636,"min":[0],"max":[149],"type":"SCALAR"}},"asset":{"generator":"obj2gltf","profile":{"api":"WebGL","version":"1.0"},"version":"1.0","premultipliedAlpha":true},"buffers":{"buffer":{"byteLength":6072,"uri":"buffer.bin","type":"arraybuffer"}},"bufferViews":{"bufferView_0":{"buffer":"buffer","byteLength":4800,"byteOffset":0,"target":34962},"bufferView_1":{"buffer":"buffer","byteLength":1272,"byteOffset":4800,"target":34963}},"extensionsUsed":[],"images":{"Land005":{"name":"Land005","uri":"Land005.jpg"}},"materials":{"Material__29":{"technique":"technique0","values":{"ambient":"texture_Land005","diffuse":"texture_Land005","emission":[0,0,0,1],"specular":[0,0,0,1],"shininess":10,"transparency":1}}},"meshes":{"Cylinder005_1":{"name":"Cylinder005_1","primitives":[{"attributes":{"POSITION":"accessor_0","NORMAL":"accessor_1","TEXCOORD_0":"accessor_2"},"indices":"accessor_3","material":"Material__29","mode":4}]}},"nodes":{"Cylinder005":{"name":"Cylinder005","meshes":["Cylinder005_1"],"children":[],"matrix":[1,0,0,0,0,1,0,0,0,0,1,0,0,0,0,1]}},"samplers":{"sampler":{"magFilter":9729,"minFilter":9986,"wrapS":10497,"wrapT":10497}},"scene":"scene","scenes":{"scene":{"nodes":["Cylinder005"]}},"textures":{"texture_Land005":{"format":6407,"internalFormat":6407,"sampler":"sampler","source":"Land005","target":3553,"type":5121}},"animations":{},"cameras":{},"programs":{"program0":{"attributes":["a_position","a_normal","a_texcoord_0"],"fragmentShader":"fragmentShader0","vertexShader":"vertexShader0"}},"shaders":{"vertexShader0":{"type":35633,"uri":"vertexShader0.glsl"},"fragmentShader0":{"type":35632,"uri":"fragmentShader0.glsl"}},"skins":{},"techniques":{"technique0":{"attributes":{"a_position":"position","a_normal":"normal","a_texcoord_0":"texcoord_0"},"parameters":{"modelViewMatrix":{"semantic":"MODELVIEW","type":35676},"projectionMatrix":{"semantic":"PROJECTION","type":35676},"normalMatrix":{"semantic":"MODELVIEWINVERSETRANSPOSE","type":35675},"ambient":{"type":35678},"diffuse":{"type":35678},"emission":{"type":35666},"specular":{"type":35666},"shininess":{"type":5126},"transparency":{"type":5126},"position":{"semantic":"POSITION","type":35665},"normal":{"semantic":"NORMAL","type":35665},"texcoord_0":{"semantic":"TEXCOORD_0","type":35664}},"program":"program0","states":{"enable":[2884,2929]},"uniforms":{"u_modelViewMatrix":"modelViewMatrix","u_projectionMatrix":"projectionMatrix","u_normalMatrix":"normalMatrix","u_ambient":"ambient","u_diffuse":"diffuse","u_emission":"emission","u_specular":"specular","u_shininess":"shininess","u_transparency":"transparency"}}}}
